<?xml version="1.0" encoding="UTF-8"?>
<svg version="1.1" xmlns="http://www.w3.org/2000/svg" width="1000" height="1000">
<path d="M0 0 C3.7898761 0.01073896 7.57927847 0.00000923 11.36914062 -0.01269531 C34.5155865 -0.02801623 57.52311668 1.04626218 80.35351562 5.01074219 C81.93227521 5.2766277 83.51105164 5.54241317 85.08984375 5.80810547 C126.38573066 12.8522238 166.4324051 24.38099649 204.79101562 41.26074219 C205.84289062 41.72351562 206.89476562 42.18628906 207.97851562 42.66308594 C245.09810748 59.12598184 280.03819505 79.8956779 311.79101562 105.26074219 C312.43022949 105.76992187 313.06944336 106.27910156 313.72802734 106.80371094 C321.11679723 112.70491487 328.42834854 118.65410499 335.38476562 125.06542969 C336.6789729 126.24618373 337.9803258 127.42024878 339.32006836 128.54907227 C346.18743624 134.37388167 352.47482258 140.79412623 358.82739258 147.16674805 C360.8486583 149.19337199 362.87521136 151.21459766 364.90234375 153.23535156 C377.22792159 165.55333783 377.22792159 165.55333783 382.79101562 172.26074219 C383.31042725 172.87344971 383.82983887 173.48615723 384.36499023 174.11743164 C400.23645985 192.90176008 414.74252096 212.41135567 427.79101562 233.26074219 C428.31115234 234.08864258 428.83128906 234.91654297 429.3671875 235.76953125 C467.98271433 297.60961096 492.25924211 367.22050985 501.04101562 439.57324219 C501.12419037 440.25753296 501.20736511 440.94182373 501.2930603 441.64685059 C502.949275 455.44523998 503.94244995 469.16188109 503.99414062 483.06542969 C504.00115494 484.33563965 504.00816925 485.60584961 504.01539612 486.91455078 C504.0327941 490.98832073 504.03982984 495.06194309 504.04101562 499.13574219 C504.04145748 499.8299955 504.04189934 500.52424881 504.04235458 501.2395401 C504.04930584 522.06738359 503.73842503 542.60322194 500.79101562 563.26074219 C500.6140918 564.56382324 500.43716797 565.8669043 500.25488281 567.20947266 C491.34447863 632.42761241 470.33281318 695.53184789 436.79101562 752.26074219 C435.75832436 754.03019221 434.72577045 755.79972241 433.69335938 757.56933594 C427.4946508 768.11878361 420.92428486 778.32051863 413.79101562 788.26074219 C413.25750488 789.00678711 412.72399414 789.75283203 412.17431641 790.52148438 C401.84265549 804.91126665 390.95666084 818.84877849 378.95117188 831.88964844 C377.7782995 833.17705084 376.61271092 834.47202541 375.48950195 835.80297852 C369.79326899 842.50944275 363.53967269 848.66277405 357.31225586 854.86987305 C355.35805939 856.81871088 353.40926415 858.77283491 351.4609375 860.72753906 C345.40908212 866.78292097 339.36285748 872.76377553 332.79101562 878.26074219 C331.78082703 879.13710987 330.77166329 880.01466071 329.76367188 880.89355469 C321.03451784 888.36899129 312.00269635 895.39084311 302.79101562 902.26074219 C302.06221191 902.80520996 301.3334082 903.34967773 300.58251953 903.91064453 C289.33395086 912.27560223 277.76772478 919.97960482 265.79101562 927.26074219 C264.90865234 927.79731445 264.02628906 928.33388672 263.1171875 928.88671875 C197.83525718 968.39458206 123.9913716 993.19787004 47.79101562 999.26074219 C46.75541504 999.35355469 45.71981445 999.44636719 44.65283203 999.54199219 C-46.66028939 1006.85853933 -140.71816003 989.70379943 -222.14794922 947.328125 C-224.43812374 946.14207394 -226.73938705 944.97908839 -229.04101562 943.81542969 C-248.26343116 934.01612321 -266.68835046 922.85515012 -284.20898438 910.26074219 C-284.95067871 909.73013184 -285.69237305 909.19952148 -286.45654297 908.65283203 C-301.15645292 898.09897247 -315.36110711 886.9711638 -328.61914062 874.63964844 C-329.98416466 873.38580283 -331.35503956 872.13701464 -332.76928711 870.93896484 C-339.57151654 865.16077614 -345.82925194 858.82654763 -352.13549805 852.51953125 C-354.13310389 850.52410805 -356.13857791 848.53683162 -358.14453125 846.54980469 C-365.30408804 839.42129021 -371.9459867 832.1963828 -378.20898438 824.26074219 C-379.2032247 823.09617017 -380.20594647 821.93873137 -381.22070312 820.79199219 C-444.17192904 749.60868288 -482.1040703 654.50099181 -493.45898438 560.94824219 C-493.54215912 560.26395142 -493.62533386 559.57966064 -493.71102905 558.87463379 C-495.36581054 545.0881848 -496.36026403 531.38273717 -496.41210938 517.49121094 C-496.41916901 516.22391647 -496.42622864 514.95662201 -496.4335022 513.65092468 C-496.45101653 509.58332231 -496.45819437 505.51587438 -496.45898438 501.44824219 C-496.45927895 500.75425575 -496.45957352 500.06026932 -496.45987701 499.34525299 C-496.46132808 478.1788801 -496.22533031 457.25418727 -493.20898438 436.26074219 C-493.10952515 435.56019714 -493.01006592 434.8596521 -492.90759277 434.13787842 C-485.78412679 384.27224396 -472.32206447 336.06238011 -451.20898438 290.26074219 C-450.79680664 289.35275879 -450.38462891 288.44477539 -449.95996094 287.50927734 C-433.62567575 251.56990128 -412.08439651 217.87292573 -387.20898438 187.26074219 C-386.52320313 186.41125 -385.83742188 185.56175781 -385.13085938 184.68652344 C-382.84000314 181.86415559 -380.52703487 179.06074878 -378.20898438 176.26074219 C-377.38760986 175.2656665 -376.56623535 174.27059082 -375.7199707 173.24536133 C-368.06563663 164.08884802 -359.84150275 155.5842238 -351.3815918 147.17260742 C-349.13874797 144.94054296 -346.90687945 142.69790005 -344.67578125 140.45410156 C-337.85240795 133.62473179 -331.05387721 126.97500322 -323.44091797 121.02124023 C-321.16905314 119.22924534 -319.03070998 117.33864198 -316.89648438 115.38574219 C-300.43148708 100.63706086 -281.93976411 87.93270446 -263.20898438 76.26074219 C-262.4705127 75.79877441 -261.73204102 75.33680664 -260.97119141 74.86083984 C-203.5473509 39.1377981 -140.75458151 16.57500659 -74.20898438 5.26074219 C-73.33016602 5.10621582 -72.45134766 4.95168945 -71.54589844 4.79248047 C-47.91079186 0.66446284 -23.94690051 -0.08027584 0 0 Z " fill="#F8A98E" transform="translate(496.208984375,-0.2607421875)"/>
<path d="M0 0 C1.30710937 -0.00773438 2.61421875 -0.01546875 3.9609375 -0.0234375 C35.83177886 0.0397983 67.04092522 12.04300949 91.625 32.25 C92.17075684 32.69569336 92.71651367 33.14138672 93.27880859 33.60058594 C105.95193466 44.00619015 117.60530927 55.23631 127.625 68.25 C128.07697754 68.83088379 128.52895508 69.41176758 128.99462891 70.01025391 C152.28050527 100.01365854 170.0419854 133.87893363 184.26953125 169.015625 C185.30280763 172.05409013 185.30280763 172.05409013 186.625 173.25 C186.90996338 172.55890137 187.19492676 171.86780273 187.48852539 171.15576172 C203.29371641 133.04195786 221.55961605 95.77929276 248.625 64.25 C249.52243226 63.1588652 250.41816307 62.06632954 251.3125 60.97265625 C266.58466145 42.47252696 284.65633152 27.31003033 305.91357422 16.15039062 C307.37008683 15.38411123 308.81351711 14.59304849 310.25390625 13.796875 C317.98631475 9.66245692 326.2635729 6.81901297 334.625 4.25 C335.3267334 4.0339209 336.0284668 3.8178418 336.75146484 3.59521484 C375.8777424 -7.83666806 420.37091589 3.62172214 455.32421875 22.2109375 C465.57013016 27.85716426 475.41297464 34.03230131 484.625 41.25 C485.14932617 41.66008301 485.67365234 42.07016602 486.21386719 42.49267578 C520.88025306 69.97679939 544.71038128 106.85522883 553.625 150.25 C553.81336426 151.16201172 554.00172852 152.07402344 554.19580078 153.01367188 C556.0726008 163.41909397 556.02009512 173.83745261 556 184.375 C556.00012085 185.34643951 556.0002417 186.31787903 556.00036621 187.3187561 C555.97211355 203.29185915 554.88273806 218.57213557 551.625 234.25 C551.47546875 235.02053711 551.3259375 235.79107422 551.171875 236.58496094 C545.43151937 265.93784423 534.38345593 295.03104769 521.67333984 322.01367188 C520.66596163 324.16262027 519.68314154 326.32107626 518.70703125 328.484375 C513.2863359 340.40204666 507.03268818 351.83884596 500.625 363.25 C499.75198242 364.80847656 499.75198242 364.80847656 498.86132812 366.3984375 C490.0365056 382.09123278 480.66786217 397.30963151 470.625 412.25 C469.93083984 413.28576172 469.23667969 414.32152344 468.52148438 415.38867188 C455.93663959 434.13520218 442.91190416 452.45965083 429.10791016 470.32617188 C427.74625376 472.09269351 426.39263852 473.86493774 425.04296875 475.640625 C418.89511398 483.70533918 412.53688322 491.58382816 406.11328125 499.4296875 C404.81090621 501.02261865 403.51433968 502.6202952 402.21875 504.21875 C397.59556623 509.91397639 392.85905943 515.50060111 388.06835938 521.0546875 C385.00449048 524.61423965 382.00899067 528.21692392 379.0625 531.875 C374.96198767 536.92808144 370.60915243 541.70309348 366.1875 546.47265625 C363.520142 549.36364944 360.92676397 552.30801642 358.34765625 555.27734375 C351.94479769 562.60941535 345.33738938 569.75806468 338.72265625 576.8984375 C336.70010104 579.08261965 334.68737558 581.27514923 332.68359375 583.4765625 C326.82179117 589.90109812 320.82529344 596.14730493 314.60791016 602.23022461 C311.73843489 605.05535267 309.00072334 607.93226723 306.37988281 610.99072266 C302.81418408 615.08521189 299.06683952 618.95315566 295.22265625 622.78515625 C294.54126083 623.46750839 293.85986542 624.14986053 293.15782166 624.85289001 C291.72794259 626.28344437 290.29682089 627.71275767 288.86450195 629.14086914 C286.69302289 631.30699074 284.52693675 633.47840174 282.36132812 635.65039062 C280.96125798 637.04979987 279.56087762 638.44889884 278.16015625 639.84765625 C277.20508934 640.80575951 277.20508934 640.80575951 276.23072815 641.78321838 C272.43353096 645.5610309 268.52648645 649.15270769 264.45799255 652.63719177 C261.3649634 655.35867739 258.50377837 658.3054961 255.625 661.25 C251.45863088 665.5114917 247.19438184 669.5514436 242.68261719 673.44628906 C239.11373709 676.57477579 235.69088096 679.85720554 232.25 683.125 C226.89417438 688.18903705 221.51472701 693.21306071 216.0078125 698.11328125 C213.72412192 700.16111526 211.47219612 702.24065689 209.22363281 704.3269043 C203.9373481 709.22419508 198.53503494 713.87546402 192.90234375 718.375 C191.02323047 719.92212586 189.30205831 721.49046341 187.625 723.25 C182.70253243 721.72682136 179.51804495 718.86176943 175.75 715.5 C174.7763147 714.64414307 174.7763147 714.64414307 173.78295898 713.77099609 C167.71847687 708.40774937 161.81323522 702.87578586 155.91796875 697.328125 C152.89954204 694.49342861 149.81055973 691.75595411 146.67578125 689.05078125 C141.5613044 684.55978348 136.60371322 679.89032927 131.625 675.25 C130.94131348 674.61288086 130.25762695 673.97576172 129.55322266 673.31933594 C121.63999535 665.93413443 113.7684157 658.53200913 106.21484375 650.77734375 C104.25906576 648.86876403 102.30363248 647.10905108 100.2265625 645.34375 C94.20417556 640.12030154 88.64066437 634.41444724 83.01586914 628.77124023 C81.0670313 626.81704376 79.11290728 624.86824853 77.15820312 622.91992188 C71.66945969 617.43380685 66.23472028 611.96839923 61.20727539 606.05053711 C58.0333336 602.43877647 54.55378766 599.11744977 51.125 595.75 C46.34117999 591.05175816 41.71877455 586.3071209 37.34472656 581.22363281 C34.40755181 577.85280364 31.3221346 574.62241199 28.25 571.375 C22.62656373 565.4028664 17.06193249 559.3931732 11.625 553.25 C10.79548828 552.31414062 10.79548828 552.31414062 9.94921875 551.359375 C5.18260205 545.94431641 0.50201525 540.45442749 -4.1875 534.97265625 C-6.28732 532.51836295 -8.39152637 530.0679562 -10.5 527.62109375 C-15.71412069 521.56595915 -20.87695098 515.48075394 -25.91015625 509.2734375 C-27.80082705 506.95429456 -29.70456291 504.64918706 -31.62109375 502.3515625 C-37.89320594 494.81840914 -44.00946594 487.21726744 -49.83740234 479.33447266 C-53.00039121 475.06041737 -56.24022507 470.85945834 -59.53662109 466.6875 C-66.1489894 458.30977298 -72.30159871 449.71299329 -78.2421875 440.84765625 C-80.49767137 437.49447685 -82.84341505 434.22376278 -85.23828125 430.96875 C-89.59787111 425.00853528 -93.66295846 418.87739473 -97.6875 412.6875 C-98.24216949 411.8358728 -98.24216949 411.8358728 -98.80804443 410.96704102 C-124.27841296 371.83908481 -147.19990443 331.25198153 -163.25488281 287.30810547 C-164.3249945 284.38652329 -165.42268578 281.47655031 -166.5234375 278.56640625 C-186.20376784 225.5211481 -192.336901 163.93194346 -168.34765625 111.32373047 C-157.75839484 88.74712745 -142.55747157 66.98433027 -123.33203125 50.90625 C-122.02440318 49.79959471 -120.74998636 48.65250268 -119.51171875 47.46875 C-107.07974834 35.68855279 -91.48511803 27.10444364 -76.375 19.25 C-75.74561523 18.92161133 -75.11623047 18.59322266 -74.46777344 18.25488281 C-59.72778961 10.68313589 -43.61234073 5.44841891 -27.375 2.25 C-26.49577881 2.07025635 -25.61655762 1.8905127 -24.71069336 1.70532227 C-16.44384033 0.15808961 -8.39478607 -0.04938109 0 0 Z " fill="#000000" transform="translate(313.375,175.75)"/>
</svg>
